<svg xmlns="http://www.w3.org/2000/svg" width="309.69" height="60" viewBox="0 0 309.69 60">
  <defs>
    <style>
      .cls-1 {
        fill: #00993b;
      }

      .cls-2 {
        fill: #fff;
      }
    </style>
  </defs>
  <g id="Group_335" data-name="Group 335" transform="translate(-201.478 -255.118)">
    <g id="Group_335-2" data-name="Group 335" transform="translate(201.478 255.118)">
      <path id="Path_209" data-name="Path 209" class="cls-1" d="M257.982,267.118a30,30,0,0,0-48,0Z" transform="translate(-203.982 -255.118)"/>
      <path id="Path_210" data-name="Path 210" class="cls-1" d="M201.478,295.134a30.128,30.128,0,0,0,.6,6h58.8a30.242,30.242,0,0,0,0-12h-58.8a30.128,30.128,0,0,0-.6,6" transform="translate(-201.478 -265.134)"/>
      <path id="Path_211" data-name="Path 211" class="cls-1" d="M209.982,323.15a30,30,0,0,0,48,0Z" transform="translate(-203.982 -275.15)"/>
    </g>
    <g id="Group_340" data-name="Group 340" transform="translate(273.28 266.705)">
      <g id="Group_336" data-name="Group 336" transform="translate(0 0)">
        <path id="Path_212" data-name="Path 212" class="cls-2" d="M303.553,272.1H324.34v4.185H312.51v2.4h11.335v3.516H312.51v2.708h12.063V289.1h-21.02Z" transform="translate(-303.336 -271.706)"/>
        <path id="Path_213" data-name="Path 213" class="cls-2" d="M358.5,272.1v12.3c0,3.19-2.783,5.1-11.75,5.1S335,287.593,335,284.4V272.1h8.957v11.62c0,1.062.7,1.422,2.793,1.422s2.793-.361,2.793-1.422V272.1Z" transform="translate(-312.594 -271.706)"/>
        <path id="Path_214" data-name="Path 214" class="cls-2" d="M379.567,279.6h3.074c1.692,0,2.345-.26,2.345-1.107V277.4c0-.825-.653-1.107-2.345-1.107h-3.074Zm4.878,9.507-3.173-5.321h-1.705V289.1h-8.958v-17h12.032c8.731,0,11.3,1.492,11.3,4.613v2.452c0,1.918-.972,3.222-3.752,3.942l3.764,5.992Z" transform="translate(-323.08 -271.706)"/>
        <path id="Path_215" data-name="Path 215" class="cls-2" d="M417.56,275.895c-2.519,0-3.214.375-3.214,1.408v6.268c0,1.034.695,1.408,3.214,1.408s3.214-.375,3.214-1.408V277.3c0-1.033-.695-1.408-3.214-1.408m12.171.727v7.629c0,3.16-2.778,5.081-12.171,5.081s-12.171-1.921-12.171-5.081v-7.629c0-3.16,2.778-5.081,12.171-5.081s12.171,1.921,12.171,5.081" transform="translate(-333.321 -271.541)"/>
        <path id="Path_216" data-name="Path 216" class="cls-2" d="M315.416,302.884c-2.519,0-3.214.375-3.214,1.408v6.268c0,1.034.695,1.408,3.214,1.408s3.214-.375,3.214-1.408v-6.268c0-1.033-.695-1.408-3.214-1.408m12.171.727v7.63c0,3.16-2.778,5.081-12.171,5.081s-12.171-1.921-12.171-5.081v-7.63c0-3.159,2.778-5.081,12.171-5.081s12.171,1.921,12.171,5.081" transform="translate(-303.245 -279.488)"/>
        <path id="Path_217" data-name="Path 217" class="cls-2" d="M354.129,304.384c0-.825-.653-1.107-2.345-1.107H348.71v3.307h3.074c1.692,0,2.345-.259,2.345-1.107Zm8.957-.679v2.452c0,3.121-2.571,4.613-11.3,4.613H348.71v5.321h-8.958v-17h12.032c8.731,0,11.3,1.493,11.3,4.614" transform="translate(-313.994 -279.653)"/>
        <path id="Path_218" data-name="Path 218" class="cls-2" d="M386.365,302.884c-2.519,0-3.214.375-3.214,1.408v6.268c0,1.034.695,1.408,3.214,1.408s3.214-.375,3.214-1.408v-6.268c0-1.033-.695-1.408-3.214-1.408m12.171.727v7.63c0,3.16-2.778,5.081-12.171,5.081s-12.171-1.921-12.171-5.081v-7.63c0-3.159,2.778-5.081,12.171-5.081s12.171,1.921,12.171,5.081" transform="translate(-324.136 -279.488)"/>
        <path id="Path_219" data-name="Path 219" class="cls-2" d="M410.646,299.092h7.763l8.1,7.333-.018-7.333h8.12v17h-7.764l-8.123-7.3.037,7.3h-8.119Z" transform="translate(-334.869 -279.653)"/>
        <path id="Path_220" data-name="Path 220" class="cls-2" d="M461.7,311.037v5.054h-8.956v-5.058l-8.1-11.942h9.587l3.081,5.514,3.086-5.514h9.07Z" transform="translate(-344.878 -279.653)"/>
      </g>
      <g id="Group_339" data-name="Group 339" transform="translate(136.987 4.349)">
        <g id="Group_337" data-name="Group 337">
          <path id="Path_221" data-name="Path 221" class="cls-2" d="M503.176,281.636V280.1c0-.565-.318-1.113-2-1.113s-2,.548-2,1.113v5.833c0,.564.317,1.113,2.015,1.113s2.014-.55,2.014-1.113V284h-2.021v-1.134h3.766v3.186c0,1.335-.777,2.278-3.771,2.278s-3.771-.943-3.771-2.278v-6.065c0-1.335.777-2.278,3.771-2.278s3.771.943,3.771,2.278v1.653Z" transform="translate(-497.401 -277.705)"/>
          <path id="Path_222" data-name="Path 222" class="cls-2" d="M510.107,281.006h1.767v7.377h-1.767Zm0-2.54h1.767V279.8h-1.767Z" transform="translate(-501.142 -277.929)"/>
          <path id="Path_223" data-name="Path 223" class="cls-2" d="M521.045,282.066l-2.81,7.377H516.6l-2.855-7.377h1.871l1.8,5.426,1.754-5.426Z" transform="translate(-502.215 -278.989)"/>
          <path id="Path_224" data-name="Path 224" class="cls-2" d="M525.26,281.006h1.767v7.377H525.26Zm0-2.54h1.767V279.8H525.26Z" transform="translate(-505.604 -277.929)"/>
          <path id="Path_225" data-name="Path 225" class="cls-2" d="M529.9,282h1.443l.109.683a2.839,2.839,0,0,1,2.356-.85c1.923,0,2.64.753,2.64,2.112v5.432h-1.767v-5.321c0-.678-.409-1.03-1.463-1.03s-1.552.389-1.552,1.053v5.3H529.9Z" transform="translate(-506.971 -278.919)"/>
          <path id="Path_226" data-name="Path 226" class="cls-2" d="M545.96,286.844v-2.9c0-.481-.157-.919-1.507-.919s-1.506.437-1.506.919v2.9c0,.482.157.92,1.506.92s1.507-.438,1.507-.92m-4.672,3.52v-1.015h1.737v.984c0,.437.24.674,1.468.674,1.36,0,1.467-.46,1.467-.941v-1.683a3.172,3.172,0,0,1-2.1.562c-2.253,0-2.684-.873-2.684-2.025v-3.062c0-1.151.431-2.025,2.684-2.025a2.777,2.777,0,0,1,2.318.793l.1-.626h1.441v8.022c0,1.245-.553,2.151-3.234,2.151-2.5,0-3.2-.638-3.2-1.808" transform="translate(-510.291 -278.92)"/>
          <path id="Path_227" data-name="Path 227" class="cls-2" d="M557.425,282h1.443l.109.683a2.838,2.838,0,0,1,2.356-.85c1.923,0,2.64.753,2.64,2.112v5.432h-1.767v-5.321c0-.678-.409-1.03-1.462-1.03s-1.552.389-1.552,1.053v5.3h-1.767Z" transform="translate(-515.075 -278.919)"/>
          <path id="Path_228" data-name="Path 228" class="cls-2" d="M570.47,283.939v1h3.013v-1.223c0-.437-.247-.718-1.506-.718-1.4,0-1.508.46-1.508.942m0,1.952v1.542c0,.482.112.941,1.508.941,1.259,0,1.506-.236,1.506-.673v-.859h1.754v.885c0,1.171-.725,1.815-3.26,1.815-2.721,0-3.274-.9-3.274-2.145v-3.422c0-1.245.554-2.145,3.274-2.145,2.535,0,3.26.691,3.26,1.86v2.2Z" transform="translate(-518.396 -278.92)"/>
          <path id="Path_229" data-name="Path 229" class="cls-2" d="M589.844,282.066l-2.372,7.377h-1.517l-1.541-4.766-1.546,4.766h-1.517l-2.371-7.377h1.858l1.42,5.269,1.542-5.269h1.224l1.541,5.269,1.421-5.269Z" transform="translate(-521.422 -278.989)"/>
          <rect id="Rectangle_104" data-name="Rectangle 104" class="cls-2" width="1.768" height="10.287" transform="translate(72.645 0.167)"/>
          <path id="Path_230" data-name="Path 230" class="cls-2" d="M605.025,281.006h1.767v7.377h-1.767Zm0-2.54h1.767V279.8h-1.767Z" transform="translate(-529.091 -277.929)"/>
          <path id="Path_231" data-name="Path 231" class="cls-2" d="M615.966,282.066l-2.811,7.377h-1.63l-2.855-7.377h1.871l1.8,5.426,1.754-5.426Z" transform="translate(-530.164 -278.989)"/>
          <path id="Path_232" data-name="Path 232" class="cls-2" d="M621.8,283.939v1h3.013v-1.223c0-.437-.247-.718-1.506-.718-1.395,0-1.507.46-1.507.942m0,1.952v1.542c0,.482.112.941,1.507.941,1.259,0,1.506-.236,1.506-.673v-.859h1.754v.885c0,1.171-.725,1.815-3.26,1.815-2.721,0-3.274-.9-3.274-2.145v-3.422c0-1.245.553-2.145,3.274-2.145,2.536,0,3.26.691,3.26,1.86v2.2Z" transform="translate(-533.509 -278.92)"/>
          <path id="Path_233" data-name="Path 233" class="cls-2" d="M635.89,284.639v-1.013c0-.348-.247-.629-1.462-.629s-1.461.236-1.461.583v.645c0,1.263,4.723.675,4.723,2.779v.836c0,1.082-.739,1.7-3.262,1.7s-3.261-.689-3.261-1.771v-1.038h1.755v1.013c0,.348.247.629,1.506.629s1.506-.237,1.506-.585v-.645c0-1.263-4.71-.675-4.71-2.778v-.837c0-1.079.726-1.7,3.2-1.7s3.2.691,3.2,1.771v1.039Z" transform="translate(-536.788 -278.919)"/>
        </g>
        <g id="Group_338" data-name="Group 338" transform="translate(0 16.072)">
          <path id="Path_234" data-name="Path 234" class="cls-2" d="M500,307.919c0,.48.112.829.88.829h1.108V309.9h-1.413c-1.9,0-2.343-.775-2.343-2.02v-4.2H497.4v-1.154h.834v-1.409l1.767-.632v2.041h1.989v1.154H500Z" transform="translate(-497.401 -300.485)"/>
          <path id="Path_235" data-name="Path 235" class="cls-2" d="M509.667,305.226c0-.481-.114-.919-1.506-.919s-1.508.437-1.508.919v3.539c0,.482.114.919,1.508.919s1.506-.437,1.506-.919Zm1.767.037v3.466c0,1.245-.554,2.122-3.273,2.122s-3.274-.876-3.274-2.122v-3.466c0-1.246.554-2.123,3.274-2.123s3.273.877,3.273,2.123" transform="translate(-499.605 -301.267)"/>
          <path id="Path_236" data-name="Path 236" class="cls-2" d="M521.046,312.248h.458a.863.863,0,0,0,.932-.536l.373-1-2.806-7.3h1.871l1.813,5.505,1.74-5.505H527.3l-3.134,8.369a2.123,2.123,0,0,1-2.431,1.621h-.686Z" transform="translate(-504.056 -301.347)"/>
          <path id="Path_237" data-name="Path 237" class="cls-2" d="M536.143,305.226c0-.481-.113-.919-1.506-.919s-1.508.437-1.508.919v3.539c0,.482.114.919,1.508.919s1.506-.437,1.506-.919Zm1.767.037v3.466c0,1.245-.554,2.122-3.273,2.122s-3.274-.876-3.274-2.122v-3.466c0-1.246.554-2.123,3.274-2.123s3.273.877,3.273,2.123" transform="translate(-507.401 -301.267)"/>
          <path id="Path_238" data-name="Path 238" class="cls-2" d="M542.656,308.81v-5.433h1.768V308.7c0,.678.407,1.03,1.417,1.03s1.508-.387,1.508-1.053v-5.3h1.767v7.377h-1.443l-.11-.683a2.9,2.9,0,0,1-2.33.849c-1.927,0-2.577-.752-2.577-2.111" transform="translate(-510.726 -301.337)"/>
          <path id="Path_239" data-name="Path 239" class="cls-2" d="M558.088,303.14v1.83h-.809c-1.144,0-1.552.344-1.552,1.1v4.616H553.96v-7.377H555.4l.143,1.163a2.779,2.779,0,0,1,2.542-1.331" transform="translate(-514.055 -301.267)"/>
          <path id="Path_240" data-name="Path 240" class="cls-2" d="M567.64,307.919c0,.48.113.829.882.829h1.108V309.9h-1.413c-1.9,0-2.343-.775-2.343-2.02v-4.2h-.834v-1.154h.834v-1.409l1.767-.632v2.041h1.99v1.154h-1.99Z" transform="translate(-517.317 -300.485)"/>
          <path id="Path_241" data-name="Path 241" class="cls-2" d="M572.708,312.248h.459a.863.863,0,0,0,.932-.536l.373-1-2.807-7.3h1.871l1.813,5.505,1.741-5.505h1.871l-3.134,8.369a2.123,2.123,0,0,1-2.431,1.621h-.687Z" transform="translate(-519.268 -301.347)"/>
          <path id="Path_242" data-name="Path 242" class="cls-2" d="M587.292,303.14v1.83h-.809c-1.144,0-1.552.344-1.552,1.1v4.616h-1.767v-7.377h1.444l.143,1.163a2.777,2.777,0,0,1,2.541-1.331" transform="translate(-522.654 -301.267)"/>
          <path id="Path_243" data-name="Path 243" class="cls-2" d="M591.817,305.249v1h3.013v-1.223c0-.437-.247-.718-1.506-.718-1.395,0-1.507.459-1.507.941m0,1.953v1.542c0,.481.112.941,1.507.941,1.259,0,1.506-.236,1.506-.673v-.859h1.754v.885c0,1.17-.725,1.815-3.26,1.815-2.721,0-3.274-.9-3.274-2.144v-3.422c0-1.245.553-2.146,3.274-2.146,2.535,0,3.26.691,3.26,1.861v2.2Z" transform="translate(-524.681 -301.267)"/>
          <path id="Path_244" data-name="Path 244" class="cls-2" d="M605.91,305.949v-1.012c0-.349-.247-.629-1.463-.629s-1.461.237-1.461.584v.645c0,1.263,4.723.674,4.723,2.778v.837c0,1.082-.739,1.7-3.262,1.7s-3.26-.689-3.26-1.771v-1.038h1.754v1.013c0,.348.247.629,1.506.629s1.507-.238,1.507-.585v-.645c0-1.263-4.71-.676-4.71-2.779v-.836c0-1.08.725-1.7,3.2-1.7s3.2.691,3.2,1.771v1.038Z" transform="translate(-527.961 -301.267)"/>
        </g>
      </g>
    </g>
  </g>
</svg>
