<svg xmlns="http://www.w3.org/2000/svg" width="256.348" height="101.409" viewBox="0 0 256.348 101.409">
  <defs>
    <style>
      .srodow1 {
        fill: #029939;
      }

      .srodow2 {
        fill: #fff;
      }

      .srodow3 {
        opacity: 0;
      }

      .srodow4 {
        fill: #00993b;
        opacity: 0.002;
      }
    </style>
  </defs>
  <g id="Group_726" data-name="Group 726" transform="translate(15773 15489)">
    <g id="Group_110" data-name="Group 110" transform="translate(-15655.668 -15475.755)">
      <path id="Path_87" data-name="Path 87" class="srodow1" d="M747.3,192.008v87.368c23.838,0,43.159-19.557,43.159-43.684s-19.321-43.684-43.159-43.684" transform="translate(-747.298 -192.008)"/>
    </g>
    <g id="Group_111" data-name="Group 111" transform="translate(-15633.747 -15418.311)">
      <path id="Path_88" data-name="Path 88" class="srodow2" d="M782.976,215.87c14.7-.029,26.652,13.712,26.652,13.712s-11.875,13.789-26.572,13.821S756.4,229.691,756.4,229.691s11.875-13.792,26.572-13.821" transform="translate(-756.404 -215.87)"/>
    </g>
    <g id="Group_112" data-name="Group 112" transform="translate(-15634.802 -15419.107)">
      <path id="Path_89" data-name="Path 89" class="srodow1" d="M783.629,244.668c-14.87,0-26.712-13.416-27.21-13.989l-.453-.52.45-.522c.5-.573,12.282-14.069,27.174-14.1h.048c14.868,0,26.707,13.416,27.205,13.987l.453.52-.45.522c-.5.575-12.282,14.066-27.172,14.1ZM758.1,230.154c2.349,2.475,13,12.918,25.527,12.918h.041c12.555-.026,23.156-10.532,25.492-13.019-2.35-2.477-13-12.918-25.523-12.918H783.6C771.053,217.157,760.439,227.667,758.1,230.154Z" transform="translate(-755.966 -215.539)"/>
    </g>
    <g id="Group_113" data-name="Group 113" transform="translate(-15634.176 -15405.865)">
      <path id="Path_90" data-name="Path 90" class="srodow1" d="M756.254,223.682l-.028-1.594,63.959-1.048.028,1.594Z" transform="translate(-756.226 -221.04)"/>
    </g>
    <g id="Group_114" data-name="Group 114" transform="translate(-15618.217 -15404.875)">
      <rect id="Rectangle_42" data-name="Rectangle 42" class="srodow1" width="17.428" height="1.593" transform="matrix(0.763, -0.646, 0.646, 0.763, 0, 11.265)"/>
    </g>
    <g id="Group_115" data-name="Group 115" transform="translate(-15618.213 -15416.586)">
      <rect id="Rectangle_43" data-name="Rectangle 43" class="srodow1" width="1.593" height="17.428" transform="translate(0 1.215) rotate(-49.692)"/>
    </g>
    <g id="Group_274" data-name="Group 274" transform="translate(-16548 -15558)">
      <g id="Group_116" data-name="Group 116" transform="translate(946.916 128.429)">
        <path id="Path_91" data-name="Path 91" class="srodow2" d="M800.064,217.684c11.791,9.341,12.607,27.969,12.607,27.969s-18.3,3.483-30.092-5.857-12.607-27.966-12.607-27.966,18.3-3.486,30.092,5.855" transform="translate(-769.972 -211.193)"/>
      </g>
      <g id="Group_273" data-name="Group 273">
        <g id="Group_118" data-name="Group 118" transform="translate(946.653 128.642)">
          <path id="Path_93" data-name="Path 93" class="srodow1" d="M820.89,252.321l-51.027-39.782.978-1.258,51.027,39.782Z" transform="translate(-769.863 -211.281)"/>
        </g>
        <g id="Group_272" data-name="Group 272">
          <g id="Group_117" data-name="Group 117" transform="translate(946.09 127.609)">
            <path id="Path_92" data-name="Path 92" class="srodow1" d="M804.993,247.586c-6.471,0-15.479-1.184-22.427-6.688-11.938-9.456-12.872-27.781-12.908-28.554l-.029-.691.679-.128c.758-.147,18.794-3.445,30.732,6.014h0c11.938,9.456,12.874,27.781,12.91,28.556l.027.688-.677.13A48.2,48.2,0,0,1,804.993,247.586ZM771.3,212.978c.3,3.452,2.169,18.683,12.253,26.673s25.321,6.312,28.751,5.809c-.3-3.452-2.169-18.684-12.253-26.673h0C789.971,210.8,774.735,212.479,771.3,212.978Z" transform="translate(-769.629 -210.852)"/>
          </g>
          <g id="Group_119" data-name="Group 119" transform="translate(952.399 146.69)">
            <rect id="Rectangle_44" data-name="Rectangle 44" class="srodow1" width="18.025" height="1.594" transform="translate(0 1.01) rotate(-3.213)"/>
          </g>
          <g id="Group_120" data-name="Group 120" transform="translate(966.307 129.928)">
            <rect id="Rectangle_45" data-name="Rectangle 45" class="srodow1" width="1.596" height="17.858" transform="matrix(0.981, -0.194, 0.194, 0.981, 0, 0.309)"/>
          </g>
        </g>
      </g>
    </g>
    <g id="Group_121" data-name="Group 121" transform="translate(-15773 -15389.98)">
      <rect id="Rectangle_46" data-name="Rectangle 46" class="srodow1" width="256.347" height="1.594"/>
    </g>
    <g id="Group_122" data-name="Group 122" class="srodow3" transform="translate(-15746.354 -15467.968)">
      <rect id="Rectangle_47" data-name="Rectangle 47" class="srodow1" width="25.665" height="1.594"/>
    </g>
    <g id="Group_123" data-name="Group 123" class="srodow3" transform="translate(-15761.92 -15487.202)">
      <rect id="Rectangle_48" data-name="Rectangle 48" class="srodow1" width="25.663" height="1.594"/>
    </g>
    <g id="Group_124" data-name="Group 124" transform="translate(-15599.295 -15489)">
      <path id="Path_94" data-name="Path 94" class="srodow1" d="M794.242,209.133l-7.593-6.473,1.035-1.213,7.59,6.473Zm-22.492,0-1.035-1.213,7.59-6.473,1.033,1.213Zm15.934-14.94-1.035-1.213,7.593-6.473,1.033,1.213Zm-9.379,0-7.59-6.473,1.035-1.213,7.588,6.473Z" transform="translate(-770.715 -186.506)"/>
    </g>
    <g id="Group_125" data-name="Group 125" transform="translate(-15742.812 -15447.615)">
      <path id="Path_95" data-name="Path 95" class="srodow1" d="M737.943,263.722c-4.4,0-8.245-4.458-10.7-11.5a23.426,23.426,0,0,1-10.13.055A7.961,7.961,0,0,1,712,248.717c-2.2-3.816-.274-9.369,4.572-15.007-4.846-5.638-6.767-11.192-4.572-15.005a7.952,7.952,0,0,1,5.116-3.56,23.384,23.384,0,0,1,10.13.053c2.448-7.042,6.3-11.5,10.7-11.5s8.248,4.461,10.7,11.5a23.394,23.394,0,0,1,10.133-.053,7.953,7.953,0,0,1,5.113,3.56c2.2,3.813.272,9.369-4.574,15.005,4.846,5.636,6.769,11.192,4.574,15.005a7.957,7.957,0,0,1-5.113,3.563,23.436,23.436,0,0,1-10.133-.055C746.191,259.263,742.346,263.722,737.943,263.722Zm-9.071-11.844c2.205,6.223,5.482,10.25,9.071,10.25s6.868-4.025,9.071-10.25a53.321,53.321,0,0,1-9.071-3.05A53.4,53.4,0,0,1,728.872,251.878Zm-11.189-16.931c-4.261,5.017-6.093,9.863-4.3,12.973a6.431,6.431,0,0,0,4.146,2.817,21.532,21.532,0,0,0,9.227-.026,53.186,53.186,0,0,1-1.892-9.434A52.74,52.74,0,0,1,717.683,234.947ZM749.13,250.71a21.61,21.61,0,0,0,9.227.026,6.431,6.431,0,0,0,4.146-2.817c1.791-3.11-.041-7.956-4.3-12.973a52.913,52.913,0,0,1-7.179,6.329A52.753,52.753,0,0,1,749.13,250.71Zm-9.218-2.776a50.3,50.3,0,0,0,7.6,2.441,51.057,51.057,0,0,0,1.719-7.822c-1.437.987-2.951,1.948-4.54,2.867h0C743.107,246.338,741.508,247.176,739.912,247.934Zm-13.255-5.378a50.55,50.55,0,0,0,1.719,7.819,50.244,50.244,0,0,0,7.6-2.441c-1.594-.758-3.195-1.6-4.779-2.513h0C729.606,244.5,728.09,243.543,726.657,242.556Zm5.335,1.483a64.733,64.733,0,0,0,5.951,3.053,65.051,65.051,0,0,0,5.949-3.053,63.277,63.277,0,0,0,5.6-3.645,64.215,64.215,0,0,0,0-13.37,63.281,63.281,0,0,0-5.6-3.645,65.676,65.676,0,0,0-5.949-3.053,65.351,65.351,0,0,0-5.951,3.053,63.2,63.2,0,0,0-5.6,3.642,64.249,64.249,0,0,0,0,13.375,63.205,63.205,0,0,0,5.6,3.642Zm-13.209-10.33a50.71,50.71,0,0,0,5.871,5.376c-.137-1.741-.207-3.536-.207-5.376s.07-3.635.207-5.373A50.692,50.692,0,0,0,718.783,233.709Zm32.449-5.373q.206,2.611.207,5.373t-.207,5.373a50.675,50.675,0,0,0,5.869-5.373A50.668,50.668,0,0,0,751.232,228.336Zm-.209-2.193a52.915,52.915,0,0,1,7.179,6.329c4.261-5.017,6.093-9.863,4.3-12.973a6.432,6.432,0,0,0-4.146-2.817,21.534,21.534,0,0,0-9.227.026A52.754,52.754,0,0,1,751.022,226.143ZM721.633,216.2a15.975,15.975,0,0,0-4.1.484,6.425,6.425,0,0,0-4.146,2.819c-1.793,3.108.039,7.954,4.3,12.971a52.911,52.911,0,0,1,7.181-6.331,53.2,53.2,0,0,1,1.892-9.432A28.4,28.4,0,0,0,721.633,216.2Zm18.279,3.288c1.6.756,3.195,1.6,4.779,2.513s3.1,1.878,4.54,2.865a51.023,51.023,0,0,0-1.719-7.819A50.034,50.034,0,0,0,739.912,219.487Zm-11.536-2.441a50.454,50.454,0,0,0-1.719,7.817c1.432-.987,2.949-1.945,4.535-2.862s3.185-1.757,4.779-2.513A49.976,49.976,0,0,0,728.376,217.046Zm.5-1.5a53.608,53.608,0,0,1,9.071,3.048,53.315,53.315,0,0,1,9.071-3.048c-2.2-6.225-5.482-10.253-9.071-10.253S731.077,209.318,728.872,215.544Zm9.071,22.569a4.4,4.4,0,1,1,4.4-4.4A4.407,4.407,0,0,1,737.943,238.112Zm0-7.212a2.809,2.809,0,1,0,2.8,2.809A2.81,2.81,0,0,0,737.943,230.9Z" transform="translate(-711.099 -203.697)"/>
    </g>
    <g id="Group_126" data-name="Group 126" transform="translate(-15699.044 -15476.248)">
      <path id="Path_96" data-name="Path 96" d="M773.137,279.517a43.857,43.857,0,1,1,43.855-43.857A43.906,43.906,0,0,1,773.137,279.517Zm0-85.723A41.865,41.865,0,1,0,815,235.66,41.916,41.916,0,0,0,773.137,193.794Z" transform="translate(-729.28 -191.803)"/>
    </g>
    <g id="Group_127" data-name="Group 127" transform="translate(-15654.593 -15476.248)">
      <path id="Path_97" data-name="Path 97" d="M747.745,279.517v-1.991c11.584,0,21.009-18.78,21.009-41.866s-9.425-41.866-21.009-41.866V191.8a43.857,43.857,0,0,1,0,87.714Zm8.041-84.946c8.729,6.23,14.957,22.3,14.957,41.089s-6.228,34.858-14.957,41.091a41.873,41.873,0,0,0,0-82.18Z" transform="translate(-747.745 -191.803)"/>
    </g>
    <g id="Group_128" data-name="Group 128" transform="translate(-15698.245 -15476.248)">
      <path id="Path_98" data-name="Path 98" d="M772.672,279.517c-12.518,0-22.735-19.136-23.012-42.863H729.612v-1.991H749.66c.277-23.724,10.494-42.86,23.012-42.86s22.728,19.136,23,42.86h20.049v1.991H795.677C795.4,260.381,785.186,279.517,772.672,279.517Zm-21.021-42.863c.265,22.627,9.593,40.87,21.021,40.87s20.749-18.243,21.014-40.87Zm0-1.991h42.035c-.265-22.627-9.591-40.87-21.014-40.87S751.916,212.037,751.651,234.663Z" transform="translate(-729.612 -191.803)"/>
    </g>
    <g id="Group_269" data-name="Group 269" transform="translate(-15746.354 -15467.968)">
      <rect id="Rectangle_47-2" data-name="Rectangle 47" class="srodow1" width="25.665" height="1.594"/>
    </g>
    <g id="Group_270" data-name="Group 270" transform="translate(-15761.92 -15487.202)">
      <rect id="Rectangle_48-2" data-name="Rectangle 48" class="srodow1" width="25.663" height="1.594"/>
    </g>
    <g id="Group_271" data-name="Group 271" class="srodow3" transform="translate(-15592.295 -15482)">
      <path id="Path_94-2" data-name="Path 94" class="srodow1" d="M780.295,195.719l-3.092-2.636.421-.494,3.091,2.636Zm-9.158,0-.421-.494,3.091-2.636.421.494Zm6.488-6.083-.421-.494,3.092-2.636.42.494Zm-3.819,0L770.715,187l.421-.494,3.09,2.636Z" transform="translate(-770.715 -186.506)"/>
    </g>
    <circle id="Ellipse_10" data-name="Ellipse 10" class="srodow4" cx="4" cy="4" r="4" transform="translate(-15720 -15421.5)"/>
  </g>
</svg>
