<svg xmlns="http://www.w3.org/2000/svg" width="256.348" height="124.792" viewBox="0 0 256.348 124.792">
  <defs>
    <style>
      .class1 {
        fill: #029939;
      }

      .class2 {
        opacity: 0.003;
      }

      .class3 {
        fill: #fff;
      }

      .class4 {
        fill: #00993b;
      }

      .class4, .class5 {
        opacity: 0;
      }
    </style>
  </defs>
  <g id="Group_724" data-name="Group 724" transform="translate(15476 15982)">
    <g id="Group_145" data-name="Group 145" transform="translate(-15456.264 -15916.684)">
      <rect id="Rectangle_53" data-name="Rectangle 53" class="class1" width="25.665" height="1.594"/>
    </g>
    <g id="Group_146" data-name="Group 146" transform="translate(-15440.696 -15935.918)">
      <rect id="Rectangle_54" data-name="Rectangle 54" class="class1" width="25.663" height="1.594"/>
    </g>
    <g id="Group_263" data-name="Group 263" class="class2" transform="translate(-15456.264 -15916.684)">
      <rect id="Rectangle_53-2" data-name="Rectangle 53" class="class1" width="25.665" height="1.594"/>
    </g>
    <g id="Group_264" data-name="Group 264" class="class2" transform="translate(-15440.696 -15935.918)">
      <rect id="Rectangle_54-2" data-name="Rectangle 54" class="class1" width="25.663" height="1.594"/>
    </g>
    <g id="Group_143" data-name="Group 143" transform="translate(-15358.666 -15946.956)">
      <path id="Path_108" data-name="Path 108" class="class1" d="M747.072,63.949v89c24.94,0,45.157-19.923,45.157-44.5s-20.217-44.5-45.157-44.5" transform="translate(-747.072 -63.949)"/>
    </g>
    <g id="Group_144" data-name="Group 144" transform="translate(-15476 -15858.802)">
      <rect id="Rectangle_52" data-name="Rectangle 52" class="class1" width="256.347" height="1.594"/>
    </g>
    <g id="Group_147" data-name="Group 147" transform="translate(-15309.626 -15871.038)">
      <path id="Path_109" data-name="Path 109" class="class3" d="M772.313,99.072a49.658,49.658,0,0,0,24.81,0c3.009-.929,4.87-2.193,4.87-3.587v7.174c0,2.176-4.511,4.035-10.886,4.793a54.241,54.241,0,0,1-6.389.371c-6.454,0-12.071-1.059-15.036-2.626-1.418-.751-2.239-1.613-2.239-2.537V95.485c0,1.394,1.861,2.658,4.87,3.587" transform="translate(-767.443 -95.485)"/>
    </g>
    <g id="Group_148" data-name="Group 148" transform="translate(-15310.423 -15871.038)">
      <path id="Path_110" data-name="Path 110" class="class1" d="M785.184,108.619c-6.425,0-12.184-1.018-15.407-2.72-1.769-.934-2.665-2.025-2.665-3.24V95.485h1.594c0,.722,1.134,1.844,4.309,2.826h0a48.912,48.912,0,0,0,24.341,0c3.175-.982,4.307-2.1,4.307-2.826h1.594v7.174c0,3.9-8.871,5.26-11.589,5.585A55.245,55.245,0,0,1,785.184,108.619ZM768.706,98.063v4.6c0,.554.662,1.223,1.815,1.832,2.959,1.562,8.577,2.535,14.663,2.535a53.028,53.028,0,0,0,6.3-.366c6.613-.785,10.183-2.648,10.183-4V98.066a13.119,13.119,0,0,1-3.837,1.767,50.406,50.406,0,0,1-25.28,0h0A13.1,13.1,0,0,1,768.706,98.063Z" transform="translate(-767.112 -95.485)"/>
    </g>
    <g id="Group_149" data-name="Group 149" transform="translate(-15309.626 -15876.086)">
      <path id="Path_111" data-name="Path 111" class="class3" d="M797.123,102.177a49.439,49.439,0,0,1-24.81,0c-3.009-.934-4.87-2.2-4.87-3.6,0-2.862,7.735-5.185,17.275-5.185s17.275,2.323,17.275,5.185c0,1.4-1.861,2.67-4.87,3.6" transform="translate(-767.443 -93.388)"/>
    </g>
    <g id="Group_150" data-name="Group 150" transform="translate(-15310.423 -15876.883)">
      <path id="Path_112" data-name="Path 112" class="class1" d="M785.184,105.022a44.57,44.57,0,0,1-12.639-1.618c-3.553-1.1-5.433-2.612-5.433-4.365,0-3.885,9.312-5.982,18.072-5.982s18.072,2.1,18.072,5.982c0,1.753-1.878,3.262-5.431,4.365h0A44.566,44.566,0,0,1,785.184,105.022Zm0-10.371c-10.21,0-16.478,2.557-16.478,4.389,0,.729,1.134,1.856,4.309,2.843a48.691,48.691,0,0,0,24.341,0c3.175-.987,4.307-2.114,4.307-2.843C801.662,97.207,795.393,94.651,785.184,94.651Z" transform="translate(-767.112 -93.057)"/>
    </g>
    <g id="Group_151" data-name="Group 151" transform="translate(-15309.626 -15877.307)">
      <path id="Path_113" data-name="Path 113" class="class3" d="M772.313,96.468a49.658,49.658,0,0,0,24.81,0c3.009-.929,4.87-2.193,4.87-3.587v7.174c0,2.176-4.511,4.035-10.886,4.793a54.238,54.238,0,0,1-6.389.371c-6.454,0-12.071-1.059-15.036-2.626-1.418-.751-2.239-1.613-2.239-2.537V92.881c0,1.394,1.861,2.658,4.87,3.587" transform="translate(-767.443 -92.881)"/>
    </g>
    <g id="Group_152" data-name="Group 152" transform="translate(-15310.423 -15877.307)">
      <path id="Path_114" data-name="Path 114" class="class1" d="M785.184,106.015c-6.425,0-12.184-1.016-15.407-2.718-1.769-.936-2.665-2.027-2.665-3.243V92.881h1.594c0,.725,1.134,1.844,4.309,2.826h0a48.912,48.912,0,0,0,24.341,0c3.175-.98,4.307-2.1,4.307-2.826h1.594v7.174c0,3.9-8.871,5.262-11.589,5.585A54.724,54.724,0,0,1,785.184,106.015ZM768.706,95.462v4.593c0,.556.662,1.223,1.815,1.834,2.959,1.562,8.577,2.533,14.663,2.533a53.546,53.546,0,0,0,6.3-.364c6.613-.787,10.183-2.65,10.183-4V95.462a13.179,13.179,0,0,1-3.837,1.769,50.479,50.479,0,0,1-25.28,0h0A13.226,13.226,0,0,1,768.706,95.462Z" transform="translate(-767.112 -92.881)"/>
    </g>
    <g id="Group_153" data-name="Group 153" transform="translate(-15309.626 -15882.353)">
      <path id="Path_115" data-name="Path 115" class="class3" d="M797.123,99.574a49.438,49.438,0,0,1-24.81,0c-3.009-.934-4.87-2.2-4.87-3.6,0-2.862,7.735-5.185,17.275-5.185s17.275,2.323,17.275,5.185c0,1.4-1.861,2.67-4.87,3.6" transform="translate(-767.443 -90.785)"/>
    </g>
    <g id="Group_154" data-name="Group 154" transform="translate(-15310.423 -15883.152)">
      <path id="Path_116" data-name="Path 116" class="class1" d="M785.184,102.42a44.57,44.57,0,0,1-12.639-1.618c-3.553-1.1-5.433-2.612-5.433-4.367,0-3.883,9.312-5.982,18.072-5.982s18.072,2.1,18.072,5.982c0,1.755-1.878,3.264-5.431,4.365v0A44.566,44.566,0,0,1,785.184,102.42Zm0-10.371c-10.21,0-16.478,2.554-16.478,4.386,0,.729,1.134,1.858,4.309,2.845a48.654,48.654,0,0,0,24.341,0c3.175-.985,4.307-2.114,4.307-2.843C801.662,94.6,795.393,92.049,785.184,92.049Z" transform="translate(-767.112 -90.453)"/>
    </g>
    <g id="Group_155" data-name="Group 155" transform="translate(-15309.626 -15884.43)">
      <path id="Path_117" data-name="Path 117" class="class3" d="M772.313,93.509a49.658,49.658,0,0,0,24.81,0c3.009-.929,4.87-2.193,4.87-3.587V97.1c0,2.176-4.511,4.035-10.886,4.793a54.241,54.241,0,0,1-6.389.371c-6.454,0-12.071-1.059-15.036-2.626-1.418-.751-2.239-1.615-2.239-2.537V89.922c0,1.394,1.861,2.658,4.87,3.587" transform="translate(-767.443 -89.922)"/>
    </g>
    <g id="Group_156" data-name="Group 156" transform="translate(-15310.423 -15884.43)">
      <path id="Path_118" data-name="Path 118" class="class1" d="M785.184,103.056c-6.425,0-12.184-1.018-15.407-2.72-1.769-.936-2.665-2.027-2.665-3.24V89.922h1.594c0,.722,1.132,1.844,4.309,2.824h0a48.838,48.838,0,0,0,24.341,0c3.175-.98,4.307-2.1,4.307-2.824h1.594V97.1c0,3.9-8.871,5.26-11.589,5.583A54.842,54.842,0,0,1,785.184,103.056ZM768.706,92.5v4.6c0,.554.662,1.221,1.815,1.832,2.961,1.562,8.58,2.535,14.663,2.535a53.722,53.722,0,0,0,6.3-.366c6.613-.787,10.183-2.648,10.183-4V92.5a13.149,13.149,0,0,1-3.837,1.767,50.405,50.405,0,0,1-25.28,0h0A13.163,13.163,0,0,1,768.706,92.5Z" transform="translate(-767.112 -89.922)"/>
    </g>
    <g id="Group_157" data-name="Group 157" transform="translate(-15309.626 -15889.479)">
      <path id="Path_119" data-name="Path 119" class="class3" d="M797.123,96.614a49.438,49.438,0,0,1-24.81,0c-3.009-.934-4.87-2.2-4.87-3.6,0-2.862,7.735-5.185,17.275-5.185s17.275,2.323,17.275,5.185c0,1.4-1.861,2.67-4.87,3.6" transform="translate(-767.443 -87.825)"/>
    </g>
    <g id="Group_158" data-name="Group 158" transform="translate(-15310.423 -15890.275)">
      <path id="Path_120" data-name="Path 120" class="class1" d="M785.184,99.459a44.57,44.57,0,0,1-12.639-1.618c-3.553-1.1-5.433-2.612-5.433-4.365,0-3.885,9.312-5.982,18.072-5.982s18.072,2.1,18.072,5.982c0,1.753-1.878,3.262-5.431,4.362v0A44.566,44.566,0,0,1,785.184,99.459Zm0-10.371c-10.21,0-16.478,2.557-16.478,4.389,0,.727,1.134,1.856,4.309,2.843a48.654,48.654,0,0,0,24.341,0c3.175-.985,4.307-2.114,4.307-2.841C801.662,91.644,795.393,89.088,785.184,89.088Z" transform="translate(-767.112 -87.494)"/>
    </g>
    <g id="Group_159" data-name="Group 159" transform="translate(-15309.626 -15890.699)">
      <path id="Path_121" data-name="Path 121" class="class3" d="M772.313,90.9a49.658,49.658,0,0,0,24.81,0c3.009-.929,4.87-2.193,4.87-3.587v7.174c0,2.176-4.511,4.035-10.886,4.793a54.243,54.243,0,0,1-6.389.371c-6.454,0-12.071-1.059-15.036-2.626-1.418-.751-2.239-1.613-2.239-2.537V87.318c0,1.394,1.861,2.658,4.87,3.587" transform="translate(-767.443 -87.318)"/>
    </g>
    <g id="Group_160" data-name="Group 160" transform="translate(-15310.423 -15890.699)">
      <path id="Path_122" data-name="Path 122" class="class1" d="M785.184,100.452c-6.425,0-12.184-1.016-15.407-2.72-1.769-.934-2.665-2.025-2.665-3.24V87.318h1.594c0,.725,1.132,1.844,4.309,2.826h0a48.912,48.912,0,0,0,24.341,0c3.175-.98,4.307-2.1,4.307-2.826h1.594v7.174c0,3.9-8.871,5.26-11.589,5.585A54.847,54.847,0,0,1,785.184,100.452ZM768.706,89.9v4.593c0,.554.662,1.223,1.815,1.832,2.961,1.565,8.58,2.535,14.663,2.535a53.206,53.206,0,0,0,6.3-.366c6.613-.785,10.183-2.648,10.183-4V89.9a13.149,13.149,0,0,1-3.837,1.767,50.406,50.406,0,0,1-25.28,0h0A13.165,13.165,0,0,1,768.706,89.9Z" transform="translate(-767.112 -87.318)"/>
    </g>
    <g id="Group_161" data-name="Group 161" transform="translate(-15309.626 -15895.747)">
      <path id="Path_123" data-name="Path 123" class="class3" d="M797.123,94.01a49.439,49.439,0,0,1-24.81,0c-3.009-.934-4.87-2.2-4.87-3.6,0-2.862,7.735-5.185,17.275-5.185s17.275,2.323,17.275,5.185c0,1.4-1.861,2.67-4.87,3.6" transform="translate(-767.443 -85.221)"/>
    </g>
    <g id="Group_162" data-name="Group 162" transform="translate(-15310.423 -15896.544)">
      <path id="Path_124" data-name="Path 124" class="class1" d="M785.184,96.855a44.686,44.686,0,0,1-12.639-1.615c-3.553-1.1-5.433-2.614-5.433-4.367,0-3.885,9.312-5.982,18.072-5.982s18.072,2.1,18.072,5.982c0,1.753-1.878,3.262-5.429,4.365l0,0A44.681,44.681,0,0,1,785.184,96.855Zm0-10.371c-10.21,0-16.478,2.557-16.478,4.389,0,.729,1.134,1.856,4.312,2.845a48.746,48.746,0,0,0,24.336,0h0c3.178-.989,4.309-2.116,4.309-2.845C801.662,89.04,795.393,86.484,785.184,86.484Z" transform="translate(-767.112 -84.89)"/>
    </g>
    <g id="Group_163" data-name="Group 163" transform="translate(-15309.626 -15897.806)">
      <path id="Path_125" data-name="Path 125" class="class3" d="M772.313,87.953a49.658,49.658,0,0,0,24.81,0c3.009-.929,4.87-2.193,4.87-3.587V91.54c0,2.176-4.511,4.035-10.886,4.793a54.24,54.24,0,0,1-6.389.371c-6.454,0-12.071-1.059-15.036-2.626-1.418-.751-2.239-1.613-2.239-2.537V84.366c0,1.394,1.861,2.658,4.87,3.587" transform="translate(-767.443 -84.366)"/>
    </g>
    <g id="Group_164" data-name="Group 164" transform="translate(-15310.423 -15897.806)">
      <path id="Path_126" data-name="Path 126" class="class1" d="M785.184,97.5c-6.425,0-12.184-1.016-15.407-2.718-1.769-.936-2.665-2.027-2.665-3.243V84.366h1.594c0,.722,1.134,1.844,4.309,2.826h0a48.912,48.912,0,0,0,24.341,0c3.175-.98,4.307-2.1,4.307-2.826h1.594V91.54c0,3.9-8.871,5.262-11.589,5.585A55.243,55.243,0,0,1,785.184,97.5ZM768.706,86.944v4.6c0,.556.662,1.223,1.815,1.834,2.959,1.562,8.577,2.533,14.663,2.533a53.547,53.547,0,0,0,6.3-.364c6.613-.787,10.183-2.65,10.183-4V86.947a13.18,13.18,0,0,1-3.837,1.769,50.479,50.479,0,0,1-25.28,0h0A13.16,13.16,0,0,1,768.706,86.944Z" transform="translate(-767.112 -84.366)"/>
    </g>
    <g id="Group_165" data-name="Group 165" transform="translate(-15309.626 -15902.854)">
      <path id="Path_127" data-name="Path 127" class="class3" d="M797.123,91.058a49.438,49.438,0,0,1-24.81,0c-3.009-.934-4.87-2.2-4.87-3.6,0-2.862,7.735-5.185,17.275-5.185s17.275,2.323,17.275,5.185c0,1.4-1.861,2.67-4.87,3.6" transform="translate(-767.443 -82.269)"/>
    </g>
    <g id="Group_166" data-name="Group 166" transform="translate(-15310.423 -15903.65)">
      <path id="Path_128" data-name="Path 128" class="class1" d="M785.184,93.9a44.57,44.57,0,0,1-12.639-1.618c-3.553-1.1-5.433-2.612-5.433-4.365,0-3.888,9.312-5.985,18.072-5.985s18.072,2.1,18.072,5.985c0,1.753-1.878,3.262-5.431,4.362v0A44.565,44.565,0,0,1,785.184,93.9Zm0-10.373c-10.21,0-16.478,2.557-16.478,4.391,0,.727,1.134,1.856,4.309,2.841a48.69,48.69,0,0,0,24.341,0c3.175-.985,4.307-2.114,4.307-2.841C801.662,86.088,795.393,83.532,785.184,83.532Z" transform="translate(-767.112 -81.938)"/>
    </g>
    <g id="Group_167" data-name="Group 167" transform="translate(-15309.626 -15904.071)">
      <path id="Path_129" data-name="Path 129" class="class3" d="M772.313,85.35a49.658,49.658,0,0,0,24.81,0c3.009-.929,4.87-2.193,4.87-3.587v7.174c0,2.176-4.511,4.035-10.886,4.793a54.241,54.241,0,0,1-6.389.371c-6.454,0-12.071-1.059-15.036-2.626-1.418-.751-2.239-1.615-2.239-2.537V81.763c0,1.394,1.861,2.658,4.87,3.587" transform="translate(-767.443 -81.763)"/>
    </g>
    <g id="Group_168" data-name="Group 168" transform="translate(-15310.423 -15904.071)">
      <path id="Path_130" data-name="Path 130" class="class1" d="M785.184,94.9c-6.425,0-12.184-1.018-15.407-2.72-1.769-.934-2.665-2.027-2.665-3.24V81.763h1.594c0,.722,1.134,1.844,4.309,2.824h0a48.838,48.838,0,0,0,24.341,0c3.175-.98,4.307-2.1,4.307-2.824h1.594v7.174c0,3.9-8.871,5.26-11.589,5.583A54.721,54.721,0,0,1,785.184,94.9ZM768.706,84.341v4.6c0,.554.662,1.221,1.815,1.832,2.959,1.562,8.577,2.535,14.663,2.535a53.025,53.025,0,0,0,6.3-.366c6.613-.787,10.183-2.648,10.183-4v-4.6a13.055,13.055,0,0,1-3.837,1.769,50.406,50.406,0,0,1-25.28,0h0A13.1,13.1,0,0,1,768.706,84.341Z" transform="translate(-767.112 -81.763)"/>
    </g>
    <g id="Group_169" data-name="Group 169" transform="translate(-15309.626 -15909.12)">
      <path id="Path_131" data-name="Path 131" class="class3" d="M797.123,88.455a49.438,49.438,0,0,1-24.81,0c-3.009-.934-4.87-2.2-4.87-3.6,0-2.862,7.735-5.185,17.275-5.185s17.275,2.323,17.275,5.185c0,1.4-1.861,2.67-4.87,3.6" transform="translate(-767.443 -79.666)"/>
    </g>
    <g id="Group_170" data-name="Group 170" transform="translate(-15310.423 -15909.917)">
      <path id="Path_132" data-name="Path 132" class="class1" d="M785.184,91.3a44.569,44.569,0,0,1-12.639-1.618c-3.553-1.1-5.433-2.612-5.433-4.365,0-3.885,9.312-5.982,18.072-5.982s18.072,2.1,18.072,5.982c0,1.753-1.878,3.262-5.431,4.365h0A44.565,44.565,0,0,1,785.184,91.3Zm0-10.371c-10.21,0-16.478,2.557-16.478,4.389,0,.727,1.134,1.856,4.309,2.843a48.654,48.654,0,0,0,24.341,0c3.175-.985,4.307-2.114,4.307-2.841C801.662,83.485,795.393,80.929,785.184,80.929Z" transform="translate(-767.112 -79.335)"/>
    </g>
    <g id="Group_171" data-name="Group 171" transform="translate(-15309.626 -15911.197)">
      <path id="Path_133" data-name="Path 133" class="class3" d="M772.313,82.39a49.658,49.658,0,0,0,24.81,0c3.009-.929,4.87-2.193,4.87-3.587v7.174c0,2.176-4.511,4.035-10.886,4.793a54.24,54.24,0,0,1-6.389.371c-6.454,0-12.071-1.059-15.036-2.626-1.418-.751-2.239-1.613-2.239-2.537V78.8c0,1.394,1.861,2.658,4.87,3.587" transform="translate(-767.443 -78.803)"/>
    </g>
    <g id="Group_172" data-name="Group 172" transform="translate(-15310.423 -15911.197)">
      <path id="Path_134" data-name="Path 134" class="class1" d="M785.184,91.938c-6.425,0-12.184-1.018-15.407-2.72-1.769-.934-2.665-2.027-2.665-3.24V78.8h1.594c0,.722,1.134,1.844,4.309,2.824h0a48.838,48.838,0,0,0,24.341,0c3.175-.98,4.307-2.1,4.307-2.824h1.594v7.174c0,3.9-8.871,5.26-11.589,5.583A54.721,54.721,0,0,1,785.184,91.938ZM768.706,81.381v4.6c0,.554.662,1.221,1.815,1.832,2.959,1.562,8.577,2.535,14.663,2.535a53.023,53.023,0,0,0,6.3-.366c6.613-.785,10.183-2.648,10.183-4v-4.6a13.055,13.055,0,0,1-3.837,1.769,50.406,50.406,0,0,1-25.28,0h0A13.1,13.1,0,0,1,768.706,81.381Z" transform="translate(-767.112 -78.803)"/>
    </g>
    <g id="Group_173" data-name="Group 173" transform="translate(-15309.626 -15916.246)">
      <path id="Path_135" data-name="Path 135" class="class3" d="M797.123,85.5a49.438,49.438,0,0,1-24.81,0c-3.009-.934-4.87-2.2-4.87-3.6,0-2.862,7.735-5.185,17.275-5.185s17.275,2.323,17.275,5.185c0,1.4-1.861,2.67-4.87,3.6" transform="translate(-767.443 -76.706)"/>
    </g>
    <g id="Group_174" data-name="Group 174" transform="translate(-15310.423 -15917.043)">
      <path id="Path_136" data-name="Path 136" class="class1" d="M785.184,88.34a44.569,44.569,0,0,1-12.639-1.618c-3.553-1.1-5.433-2.612-5.433-4.365,0-3.885,9.312-5.982,18.072-5.982s18.072,2.1,18.072,5.982c0,1.753-1.878,3.262-5.431,4.365h0A44.564,44.564,0,0,1,785.184,88.34Zm0-10.371c-10.21,0-16.478,2.557-16.478,4.389,0,.727,1.134,1.856,4.309,2.843a48.654,48.654,0,0,0,24.341,0c3.175-.985,4.307-2.114,4.307-2.841C801.662,80.525,795.393,77.969,785.184,77.969Z" transform="translate(-767.112 -76.375)"/>
    </g>
    <g id="Group_275" data-name="Group 275" transform="translate(-16251 -16039)">
      <g id="Group_175" data-name="Group 175" transform="translate(941.374 121.534)">
        <path id="Path_137" data-name="Path 137" class="class3" d="M772.313,79.786a49.658,49.658,0,0,0,24.81,0c3.009-.929,4.87-2.193,4.87-3.587v7.174c0,2.176-4.511,4.035-10.886,4.793a54.241,54.241,0,0,1-6.389.371c-6.454,0-12.071-1.059-15.036-2.626-1.418-.751-2.239-1.613-2.239-2.537V76.2c0,1.394,1.861,2.658,4.87,3.587" transform="translate(-767.443 -76.199)"/>
      </g>
      <g id="Group_176" data-name="Group 176" transform="translate(940.577 121.536)">
        <path id="Path_138" data-name="Path 138" class="class1" d="M785.184,89.334c-6.425,0-12.184-1.018-15.407-2.72-1.769-.936-2.665-2.027-2.665-3.24V76.2h1.594c0,.722,1.132,1.844,4.309,2.824h0a48.838,48.838,0,0,0,24.341,0c3.175-.98,4.307-2.1,4.307-2.824h1.594v7.174c0,3.9-8.871,5.26-11.589,5.583A54.845,54.845,0,0,1,785.184,89.334ZM768.706,78.778v4.6c0,.554.662,1.221,1.815,1.832,2.961,1.562,8.58,2.535,14.663,2.535a53.725,53.725,0,0,0,6.3-.366c6.613-.787,10.183-2.648,10.183-4v-4.6a13.085,13.085,0,0,1-3.837,1.769,50.405,50.405,0,0,1-25.28,0h0A13.163,13.163,0,0,1,768.706,78.778Z" transform="translate(-767.112 -76.2)"/>
      </g>
      <g id="Group_177" data-name="Group 177" transform="translate(941.374 116.488)">
        <path id="Path_139" data-name="Path 139" class="class3" d="M797.123,82.892a49.438,49.438,0,0,1-24.81,0c-3.009-.934-4.87-2.2-4.87-3.6,0-2.862,7.735-5.185,17.275-5.185s17.275,2.323,17.275,5.185c0,1.4-1.861,2.67-4.87,3.6" transform="translate(-767.443 -74.103)"/>
        <path id="Path_187" data-name="Path 187" class="class4" d="M797.123,82.892a49.438,49.438,0,0,1-24.81,0c-3.009-.934-4.87-2.2-4.87-3.6,0-2.862,7.735-5.185,17.275-5.185s17.275,2.323,17.275,5.185c0,1.4-1.861,2.67-4.87,3.6" transform="translate(-767.443 -74.103)"/>
      </g>
      <g id="Group_178" data-name="Group 178" transform="translate(940.577 115.689)">
        <path id="Path_140" data-name="Path 140" class="class1" d="M785.184,85.738a44.593,44.593,0,0,1-12.639-1.618c-3.553-1.1-5.433-2.612-5.433-4.365,0-3.888,9.312-5.985,18.072-5.985s18.072,2.1,18.072,5.985c0,1.753-1.878,3.262-5.429,4.365h0A44.588,44.588,0,0,1,785.184,85.738Zm0-10.373c-10.21,0-16.478,2.557-16.478,4.391,0,.727,1.134,1.856,4.312,2.843a48.746,48.746,0,0,0,24.336,0h0c3.178-.987,4.309-2.116,4.309-2.843C801.662,77.921,795.393,75.365,785.184,75.365Z" transform="translate(-767.112 -73.771)"/>
      </g>
    </g>
    <g id="Group_179" data-name="Group 179" transform="translate(-15337.641 -15869.817)">
      <path id="Path_141" data-name="Path 141" class="class3" d="M785.486,104.781a49.439,49.439,0,0,1-24.81,0c-3.009-.934-4.87-2.2-4.87-3.6,0-2.862,7.735-5.185,17.275-5.185s17.275,2.323,17.275,5.185c0,1.4-1.861,2.67-4.87,3.6" transform="translate(-755.806 -95.992)"/>
    </g>
    <g id="Group_180" data-name="Group 180" transform="translate(-15338.438 -15870.614)">
      <path id="Path_142" data-name="Path 142" class="class1" d="M773.547,107.626a44.575,44.575,0,0,1-12.641-1.618c-3.553-1.1-5.431-2.612-5.431-4.367,0-3.883,9.312-5.98,18.072-5.98s18.072,2.1,18.072,5.98c0,1.755-1.878,3.264-5.433,4.365v0A44.547,44.547,0,0,1,773.547,107.626Zm0-10.371c-10.209,0-16.478,2.554-16.478,4.386,0,.729,1.131,1.858,4.309,2.846a48.645,48.645,0,0,0,24.338,0c3.175-.985,4.309-2.114,4.309-2.843C790.025,99.809,783.759,97.255,773.547,97.255Z" transform="translate(-755.475 -95.661)"/>
    </g>
    <g id="Group_181" data-name="Group 181" transform="translate(-15337.641 -15871.038)">
      <path id="Path_143" data-name="Path 143" class="class3" d="M760.676,99.072a49.659,49.659,0,0,0,24.81,0c3.009-.929,4.87-2.193,4.87-3.587v7.174c0,2.176-4.511,4.035-10.886,4.793a54.236,54.236,0,0,1-6.389.371c-6.454,0-12.07-1.059-15.036-2.626-1.418-.751-2.239-1.613-2.239-2.537V95.485c0,1.394,1.861,2.658,4.87,3.587" transform="translate(-755.806 -95.485)"/>
    </g>
    <g id="Group_182" data-name="Group 182" transform="translate(-15338.438 -15871.038)">
      <path id="Path_144" data-name="Path 144" class="class1" d="M773.547,108.619c-6.427,0-12.188-1.018-15.407-2.72-1.769-.936-2.665-2.027-2.665-3.24V95.485h1.594c0,.722,1.131,1.844,4.309,2.826a48.9,48.9,0,0,0,24.338,0c3.175-.982,4.309-2.1,4.309-2.826h1.594v7.174c0,3.9-8.869,5.26-11.589,5.585A55.184,55.184,0,0,1,773.547,108.619ZM757.069,98.063v4.6c0,.554.662,1.223,1.818,1.832,2.954,1.562,8.573,2.535,14.661,2.535a53.032,53.032,0,0,0,6.3-.366c6.615-.785,10.183-2.648,10.183-4v-4.6a13.072,13.072,0,0,1-3.84,1.769,50.405,50.405,0,0,1-25.279,0h0A13.081,13.081,0,0,1,757.069,98.063Z" transform="translate(-755.475 -95.485)"/>
    </g>
    <g id="Group_183" data-name="Group 183" transform="translate(-15337.641 -15876.086)">
      <path id="Path_145" data-name="Path 145" class="class3" d="M785.486,102.177a49.439,49.439,0,0,1-24.81,0c-3.009-.934-4.87-2.2-4.87-3.6,0-2.862,7.735-5.185,17.275-5.185s17.275,2.323,17.275,5.185c0,1.4-1.861,2.67-4.87,3.6" transform="translate(-755.806 -93.388)"/>
    </g>
    <g id="Group_184" data-name="Group 184" transform="translate(-15338.438 -15876.883)">
      <path id="Path_146" data-name="Path 146" class="class1" d="M773.547,105.022a44.575,44.575,0,0,1-12.641-1.618c-3.553-1.1-5.431-2.612-5.431-4.365,0-3.885,9.312-5.982,18.072-5.982s18.072,2.1,18.072,5.982c0,1.753-1.878,3.262-5.433,4.365h0A44.547,44.547,0,0,1,773.547,105.022Zm0-10.371c-10.209,0-16.478,2.557-16.478,4.389,0,.729,1.131,1.856,4.309,2.843a48.682,48.682,0,0,0,24.338,0c3.175-.987,4.309-2.114,4.309-2.843C790.025,97.207,783.759,94.651,773.547,94.651Z" transform="translate(-755.475 -93.057)"/>
    </g>
    <g id="Group_185" data-name="Group 185" transform="translate(-15337.641 -15878.145)">
      <path id="Path_147" data-name="Path 147" class="class3" d="M760.676,96.12a49.659,49.659,0,0,0,24.81,0c3.009-.929,4.87-2.193,4.87-3.587v7.174c0,2.176-4.511,4.035-10.886,4.793a54.236,54.236,0,0,1-6.389.371c-6.454,0-12.07-1.059-15.036-2.626-1.418-.751-2.239-1.613-2.239-2.537V92.533c0,1.394,1.861,2.658,4.87,3.587" transform="translate(-755.806 -92.533)"/>
    </g>
    <g id="Group_186" data-name="Group 186" transform="translate(-15338.438 -15878.145)">
      <path id="Path_148" data-name="Path 148" class="class1" d="M773.547,105.667c-6.427,0-12.188-1.016-15.407-2.718-1.769-.936-2.665-2.029-2.665-3.243V92.533h1.594c0,.722,1.131,1.844,4.309,2.826a48.9,48.9,0,0,0,24.338,0c3.175-.982,4.309-2.1,4.309-2.826h1.594v7.174c0,3.9-8.869,5.262-11.589,5.585A55.182,55.182,0,0,1,773.547,105.667ZM757.069,95.111v4.6c0,.554.662,1.223,1.818,1.834,2.954,1.562,8.573,2.533,14.661,2.533a53.548,53.548,0,0,0,6.3-.364c6.615-.787,10.183-2.65,10.183-4v-4.6a13.131,13.131,0,0,1-3.84,1.772,50.478,50.478,0,0,1-25.279,0h0A13.14,13.14,0,0,1,757.069,95.111Z" transform="translate(-755.475 -92.533)"/>
    </g>
    <g id="Group_187" data-name="Group 187" transform="translate(-15337.641 -15883.192)">
      <path id="Path_149" data-name="Path 149" class="class3" d="M785.486,99.225a49.439,49.439,0,0,1-24.81,0c-3.009-.934-4.87-2.2-4.87-3.6,0-2.862,7.735-5.185,17.275-5.185s17.275,2.323,17.275,5.185c0,1.4-1.861,2.67-4.87,3.6" transform="translate(-755.806 -90.436)"/>
    </g>
    <g id="Group_188" data-name="Group 188" transform="translate(-15338.438 -15883.989)">
      <path id="Path_150" data-name="Path 150" class="class1" d="M773.547,102.072a44.575,44.575,0,0,1-12.641-1.618c-3.553-1.1-5.431-2.612-5.431-4.367,0-3.885,9.312-5.982,18.072-5.982s18.072,2.1,18.072,5.982c0,1.755-1.878,3.264-5.433,4.365v0A44.547,44.547,0,0,1,773.547,102.072Zm0-10.373c-10.209,0-16.478,2.557-16.478,4.389,0,.727,1.131,1.858,4.309,2.843a48.682,48.682,0,0,0,24.338,0c3.175-.985,4.309-2.116,4.309-2.843C790.025,94.255,783.759,91.7,773.547,91.7Z" transform="translate(-755.475 -90.105)"/>
    </g>
    <g id="Group_189" data-name="Group 189" transform="translate(-15337.641 -15884.411)">
      <path id="Path_151" data-name="Path 151" class="class3" d="M760.676,93.517a49.659,49.659,0,0,0,24.81,0c3.009-.929,4.87-2.193,4.87-3.587V97.1c0,2.176-4.511,4.035-10.886,4.793a54.236,54.236,0,0,1-6.389.371c-6.454,0-12.07-1.059-15.036-2.626-1.418-.751-2.239-1.613-2.239-2.537V89.93c0,1.394,1.861,2.658,4.87,3.587" transform="translate(-755.806 -89.93)"/>
    </g>
    <g id="Group_190" data-name="Group 190" transform="translate(-15338.438 -15884.411)">
      <path id="Path_152" data-name="Path 152" class="class1" d="M773.547,103.064c-6.427,0-12.188-1.018-15.407-2.72-1.769-.936-2.665-2.027-2.665-3.24V89.93h1.594c0,.722,1.129,1.844,4.309,2.824h0a48.828,48.828,0,0,0,24.338,0c3.178-.98,4.309-2.1,4.309-2.824h1.594V97.1c0,3.9-8.869,5.26-11.589,5.583A54.93,54.93,0,0,1,773.547,103.064ZM757.069,92.508v4.6c0,.554.662,1.221,1.818,1.832,2.954,1.562,8.573,2.535,14.661,2.535a53.3,53.3,0,0,0,6.3-.366c6.615-.787,10.183-2.65,10.183-4v-4.6a13.134,13.134,0,0,1-3.84,1.769,50.406,50.406,0,0,1-25.279,0h0A13.143,13.143,0,0,1,757.069,92.508Z" transform="translate(-755.475 -89.93)"/>
    </g>
    <g id="Group_191" data-name="Group 191" transform="translate(-15337.641 -15889.459)">
      <path id="Path_153" data-name="Path 153" class="class3" d="M785.486,96.622a49.438,49.438,0,0,1-24.81,0c-3.009-.934-4.87-2.2-4.87-3.6,0-2.862,7.735-5.185,17.275-5.185s17.275,2.323,17.275,5.185c0,1.4-1.861,2.67-4.87,3.6" transform="translate(-755.806 -87.833)"/>
    </g>
    <g id="Group_192" data-name="Group 192" transform="translate(-15338.438 -15890.256)">
      <path id="Path_154" data-name="Path 154" class="class1" d="M773.547,99.467a44.574,44.574,0,0,1-12.641-1.618c-3.553-1.1-5.431-2.612-5.431-4.365,0-3.885,9.312-5.982,18.072-5.982s18.072,2.1,18.072,5.982c0,1.753-1.878,3.262-5.433,4.365h0A44.546,44.546,0,0,1,773.547,99.467Zm0-10.371c-10.209,0-16.478,2.554-16.478,4.389,0,.727,1.131,1.856,4.309,2.843a48.645,48.645,0,0,0,24.338,0c3.175-.985,4.309-2.114,4.309-2.841C790.025,91.65,783.759,89.1,773.547,89.1Z" transform="translate(-755.475 -87.502)"/>
    </g>
    <g id="Group_193" data-name="Group 193" transform="translate(-15337.641 -15891.537)">
      <path id="Path_155" data-name="Path 155" class="class3" d="M760.676,90.557a49.659,49.659,0,0,0,24.81,0c3.009-.929,4.87-2.193,4.87-3.587v7.174c0,2.176-4.511,4.035-10.886,4.793a54.235,54.235,0,0,1-6.389.371c-6.454,0-12.07-1.059-15.036-2.626-1.418-.751-2.239-1.613-2.239-2.537V86.97c0,1.394,1.861,2.658,4.87,3.587" transform="translate(-755.806 -86.97)"/>
    </g>
    <g id="Group_194" data-name="Group 194" transform="translate(-15338.438 -15891.537)">
      <path id="Path_156" data-name="Path 156" class="class1" d="M773.547,100.1c-6.427,0-12.188-1.018-15.407-2.72-1.769-.936-2.665-2.027-2.665-3.24V86.97h1.594c0,.722,1.131,1.844,4.309,2.824a48.829,48.829,0,0,0,24.338,0c3.175-.98,4.309-2.1,4.309-2.824h1.594v7.174c0,3.9-8.869,5.26-11.589,5.583A54.661,54.661,0,0,1,773.547,100.1ZM757.069,89.548v4.6c0,.554.662,1.221,1.818,1.832,2.954,1.562,8.573,2.535,14.661,2.535a53.03,53.03,0,0,0,6.3-.366c6.615-.785,10.183-2.648,10.183-4v-4.6a13.072,13.072,0,0,1-3.84,1.769,50.406,50.406,0,0,1-25.279,0h0A13.081,13.081,0,0,1,757.069,89.548Z" transform="translate(-755.475 -86.97)"/>
    </g>
    <g id="Group_195" data-name="Group 195" transform="translate(-15337.641 -15896.585)">
      <path id="Path_157" data-name="Path 157" class="class3" d="M785.486,93.662a49.439,49.439,0,0,1-24.81,0c-3.009-.934-4.87-2.2-4.87-3.6,0-2.862,7.735-5.185,17.275-5.185s17.275,2.323,17.275,5.185c0,1.4-1.861,2.67-4.87,3.6" transform="translate(-755.806 -84.873)"/>
    </g>
    <g id="Group_196" data-name="Group 196" transform="translate(-15338.438 -15897.382)">
      <path id="Path_158" data-name="Path 158" class="class1" d="M773.547,96.507a44.573,44.573,0,0,1-12.641-1.618c-3.553-1.1-5.431-2.612-5.431-4.365,0-3.885,9.312-5.982,18.072-5.982s18.072,2.1,18.072,5.982c0,1.753-1.878,3.262-5.433,4.365h0A44.545,44.545,0,0,1,773.547,96.507Zm0-10.371c-10.209,0-16.478,2.557-16.478,4.389,0,.727,1.131,1.856,4.309,2.843a48.645,48.645,0,0,0,24.338,0c3.175-.985,4.309-2.114,4.309-2.841C790.025,88.692,783.759,86.136,773.547,86.136Z" transform="translate(-755.475 -84.542)"/>
    </g>
    <g id="Group_197" data-name="Group 197" transform="translate(-15424.218 -15869.817)">
      <path id="Path_159" data-name="Path 159" class="class3" d="M749.522,104.781a49.439,49.439,0,0,1-24.81,0c-3.009-.934-4.87-2.2-4.87-3.6,0-2.862,7.735-5.185,17.275-5.185s17.275,2.323,17.275,5.185c0,1.4-1.861,2.67-4.87,3.6" transform="translate(-719.842 -95.992)"/>
    </g>
    <g id="Group_198" data-name="Group 198" transform="translate(-15425.015 -15870.614)">
      <path id="Path_160" data-name="Path 160" class="class1" d="M737.583,107.626a44.548,44.548,0,0,1-12.639-1.618c-3.556-1.1-5.433-2.612-5.433-4.367,0-3.883,9.312-5.98,18.072-5.98s18.069,2.1,18.069,5.98c0,1.755-1.878,3.264-5.428,4.365v0A44.575,44.575,0,0,1,737.583,107.626Zm0-10.371c-10.212,0-16.478,2.554-16.478,4.386,0,.729,1.134,1.858,4.309,2.846a48.645,48.645,0,0,0,24.338,0c3.178-.985,4.307-2.114,4.307-2.843C754.059,99.809,747.792,97.255,737.583,97.255Z" transform="translate(-719.511 -95.661)"/>
    </g>
    <g id="Group_199" data-name="Group 199" transform="translate(-15424.218 -15871.038)">
      <path id="Path_161" data-name="Path 161" class="class3" d="M724.712,99.072a49.659,49.659,0,0,0,24.81,0c3.009-.929,4.87-2.193,4.87-3.587v7.174c0,2.176-4.511,4.035-10.886,4.793a54.237,54.237,0,0,1-6.389.371c-6.454,0-12.07-1.059-15.036-2.626-1.418-.751-2.239-1.613-2.239-2.537V95.485c0,1.394,1.861,2.658,4.87,3.587" transform="translate(-719.842 -95.485)"/>
    </g>
    <g id="Group_200" data-name="Group 200" transform="translate(-15425.015 -15871.038)">
      <path id="Path_162" data-name="Path 162" class="class1" d="M737.583,108.619c-6.425,0-12.186-1.018-15.409-2.72-1.767-.934-2.663-2.025-2.663-3.24V95.485H721.1c0,.722,1.134,1.844,4.309,2.826h0a48.9,48.9,0,0,0,24.338,0c3.178-.982,4.307-2.1,4.307-2.826h1.594v7.174c0,3.9-8.868,5.26-11.586,5.585A55.241,55.241,0,0,1,737.583,108.619ZM721.1,98.063v4.6c0,.554.66,1.223,1.815,1.832,2.956,1.562,8.575,2.535,14.663,2.535a53.087,53.087,0,0,0,6.3-.366c6.613-.785,10.181-2.648,10.181-4V98.066a13.13,13.13,0,0,1-3.835,1.767,50.405,50.405,0,0,1-25.28,0h0A13.071,13.071,0,0,1,721.1,98.063Z" transform="translate(-719.511 -95.485)"/>
    </g>
    <g id="Group_201" data-name="Group 201" transform="translate(-15424.218 -15876.086)">
      <path id="Path_163" data-name="Path 163" class="class3" d="M749.522,102.177a49.439,49.439,0,0,1-24.81,0c-3.009-.934-4.87-2.2-4.87-3.6,0-2.862,7.735-5.185,17.275-5.185s17.275,2.323,17.275,5.185c0,1.4-1.861,2.67-4.87,3.6" transform="translate(-719.842 -93.388)"/>
    </g>
    <g id="Group_202" data-name="Group 202" transform="translate(-15425.015 -15876.883)">
      <path id="Path_164" data-name="Path 164" class="class1" d="M737.583,105.022a44.548,44.548,0,0,1-12.639-1.618c-3.556-1.1-5.433-2.612-5.433-4.365,0-3.885,9.312-5.982,18.072-5.982s18.069,2.1,18.069,5.982c0,1.753-1.878,3.262-5.428,4.365h0A44.575,44.575,0,0,1,737.583,105.022Zm0-10.371c-10.212,0-16.478,2.557-16.478,4.389,0,.729,1.134,1.856,4.309,2.843a48.682,48.682,0,0,0,24.338,0c3.178-.987,4.307-2.114,4.307-2.843C754.059,97.207,747.792,94.651,737.583,94.651Z" transform="translate(-719.511 -93.057)"/>
    </g>
    <g id="Group_203" data-name="Group 203" transform="translate(-15424.218 -15878.145)">
      <path id="Path_165" data-name="Path 165" class="class3" d="M724.712,96.12a49.659,49.659,0,0,0,24.81,0c3.009-.929,4.87-2.193,4.87-3.587v7.174c0,2.176-4.511,4.035-10.886,4.793a54.237,54.237,0,0,1-6.389.371c-6.454,0-12.07-1.059-15.036-2.626-1.418-.751-2.239-1.613-2.239-2.537V92.533c0,1.394,1.861,2.658,4.87,3.587" transform="translate(-719.842 -92.533)"/>
    </g>
    <g id="Group_204" data-name="Group 204" transform="translate(-15425.015 -15878.145)">
      <path id="Path_166" data-name="Path 166" class="class1" d="M737.583,105.667c-6.425,0-12.186-1.016-15.409-2.718-1.767-.936-2.663-2.027-2.663-3.243V92.533H721.1c0,.722,1.134,1.844,4.309,2.826h0a48.9,48.9,0,0,0,24.338,0c3.178-.98,4.307-2.1,4.307-2.826h1.594v7.174c0,3.9-8.868,5.262-11.586,5.585A55.24,55.24,0,0,1,737.583,105.667ZM721.1,95.111v4.6c0,.556.66,1.223,1.815,1.834,2.956,1.562,8.575,2.533,14.663,2.533a53.6,53.6,0,0,0,6.3-.364c6.613-.787,10.181-2.65,10.181-4V95.114a13.19,13.19,0,0,1-3.835,1.769,50.478,50.478,0,0,1-25.28,0h0A13.13,13.13,0,0,1,721.1,95.111Z" transform="translate(-719.511 -92.533)"/>
    </g>
    <g id="Group_205" data-name="Group 205" transform="translate(-15424.218 -15883.192)">
      <path id="Path_167" data-name="Path 167" class="class3" d="M749.522,99.225a49.439,49.439,0,0,1-24.81,0c-3.009-.934-4.87-2.2-4.87-3.6,0-2.862,7.735-5.185,17.275-5.185s17.275,2.323,17.275,5.185c0,1.4-1.861,2.67-4.87,3.6" transform="translate(-719.842 -90.436)"/>
    </g>
    <g id="Group_206" data-name="Group 206" transform="translate(-15425.015 -15883.989)">
      <path id="Path_168" data-name="Path 168" class="class1" d="M737.583,102.072a44.548,44.548,0,0,1-12.639-1.618c-3.556-1.1-5.433-2.612-5.433-4.367,0-3.885,9.312-5.982,18.072-5.982s18.069,2.1,18.069,5.982c0,1.755-1.878,3.264-5.428,4.365v0A44.575,44.575,0,0,1,737.583,102.072Zm0-10.373c-10.212,0-16.478,2.557-16.478,4.389,0,.727,1.134,1.858,4.309,2.843a48.682,48.682,0,0,0,24.338,0c3.178-.985,4.307-2.114,4.307-2.843C754.059,94.255,747.792,91.7,737.583,91.7Z" transform="translate(-719.511 -90.105)"/>
    </g>
    <g id="Group_207" data-name="Group 207" transform="translate(-15397.056 -15941.059)">
      <path id="Path_169" data-name="Path 169" d="M769.775,143.579a38.59,38.59,0,1,1,38.645-38.59A38.663,38.663,0,0,1,769.775,143.579Zm0-75.189a36.6,36.6,0,1,0,36.657,36.6A36.672,36.672,0,0,0,769.775,68.39Z" transform="translate(-731.125 -66.399)"/>
    </g>
    <g id="Group_208" data-name="Group 208" transform="translate(-15359.199 -15936.117)">
      <rect id="Rectangle_55" data-name="Rectangle 55" width="1.594" height="8.127"/>
    </g>
    <g id="Group_209" data-name="Group 209" transform="translate(-15392.26 -15903.323)">
      <rect id="Rectangle_56" data-name="Rectangle 56" width="8.144" height="1.594"/>
    </g>
    <g id="Group_210" data-name="Group 210" transform="translate(-15359.378 -15876.828)">
      <rect id="Rectangle_57" data-name="Rectangle 57" width="1.594" height="8.127"/>
    </g>
    <g id="Group_211" data-name="Group 211" transform="translate(-15332.878 -15903.145)">
      <rect id="Rectangle_58" data-name="Rectangle 58" width="8.141" height="1.594"/>
    </g>
    <path id="Path_170" data-name="Path 170" d="M773.679,154.149a45.261,45.261,0,1,1,45.33-45.261A45.347,45.347,0,0,1,773.679,154.149Zm0-88.53a43.27,43.27,0,1,0,43.342,43.27A43.355,43.355,0,0,0,773.679,65.619Zm.421,43.932-.624-1.1-.929.53L765.61,96.852l1.731-.987,6.577,11.5,19.42-11,.982,1.733Z" transform="translate(-16132.088 -16011.357)"/>
    <g id="Group_213" data-name="Group 213" transform="translate(-15361.742 -15905.639)">
      <path id="Path_171" data-name="Path 171" class="class3" d="M752.272,84.345a3.239,3.239,0,1,1-3.238-3.233,3.235,3.235,0,0,1,3.238,3.233" transform="translate(-745.794 -81.112)"/>
    </g>
    <g id="Group_214" data-name="Group 214" transform="translate(-15362.539 -15906.436)">
      <path id="Path_172" data-name="Path 172" d="M749.5,88.841a4.03,4.03,0,1,1,4.035-4.03A4.038,4.038,0,0,1,749.5,88.841Zm0-6.466a2.436,2.436,0,1,0,2.441,2.436A2.442,2.442,0,0,0,749.5,82.375Z" transform="translate(-745.463 -80.781)"/>
    </g>
    <g id="Group_215" data-name="Group 215" transform="translate(-15358.408 -15960.873)">
      <path id="Path_173" data-name="Path 173" d="M793.754,83.676a57.226,57.226,0,0,0-46.575-23.915V58.168a58.817,58.817,0,0,1,47.872,24.584Z" transform="translate(-747.179 -58.168)"/>
    </g>
    <g id="Group_216" data-name="Group 216" transform="translate(-15309.932 -15982)">
      <path id="Path_174" data-name="Path 174" class="class1" d="M790.843,72.019l-7.588-6.473,1.033-1.213,7.59,6.473Zm-22.492,0-1.035-1.213,7.59-6.473,1.033,1.213Zm15.937-14.94-1.033-1.213,7.588-6.473,1.035,1.213Zm-9.381,0-7.59-6.473,1.035-1.213,7.588,6.473Z" transform="translate(-767.316 -49.392)"/>
    </g>
    <g id="Group_265" data-name="Group 265" class="class5" transform="translate(-15303 -15975)">
      <path id="Path_174-2" data-name="Path 174" class="class1" d="M776.894,58.6l-3.089-2.635.42-.494,3.09,2.636Zm-9.157,0-.421-.494,3.09-2.636.42.494Zm6.488-6.083-.42-.494,3.089-2.636.421.494Zm-3.819,0-3.09-2.636.421-.494,3.089,2.636Z" transform="translate(-767.316 -49.392)"/>
    </g>
  </g>
</svg>
